<?xml version="1.0" standalone="no"?>
<!DOCTYPE svg PUBLIC "-//W3C//DTD SVG 20010904//EN"
 "http://www.w3.org/TR/2001/REC-SVG-20010904/DTD/svg10.dtd">
<svg version="1.0" xmlns="http://www.w3.org/2000/svg"
 width="626.000000pt" height="626.000000pt" viewBox="0 0 626.000000 626.000000"
 preserveAspectRatio="xMidYMid meet">
<metadata>
Created by potrace 1.11, written by Peter Selinger 2001-2013
</metadata>
<g transform="translate(0.000000,626.000000) scale(0.100000,-0.100000)"
fill="#000000" stroke="none">
<path d="M0 4485 c0 -976 2 -1775 5 -1775 2 0 19 7 37 15 18 8 241 48 495 90
l463 77 62 -38 c35 -20 69 -42 76 -47 10 -8 -13 -37 -95 -121 -59 -61 -114
-112 -120 -114 -7 -2 -59 25 -115 59 -57 34 -133 79 -169 101 l-65 38 -189
-30 c-104 -17 -190 -32 -191 -33 0 -1 7 -49 16 -107 10 -58 17 -105 16 -106
-38 -29 -168 -114 -174 -114 -5 0 -15 35 -22 77 -6 43 -16 89 -20 103 -5 14
-9 -557 -9 -1267 l-1 -1293 1339 0 1339 0 71 168 c44 102 69 175 65 185 -4 11
5 30 26 54 l33 37 -24 15 c-69 47 -69 32 -5 193 74 186 68 177 103 152 15 -12
90 -65 166 -118 134 -95 139 -98 168 -86 16 7 32 11 34 8 3 -2 -112 -137 -255
-299 -143 -162 -260 -297 -260 -301 0 -5 397 -8 883 -7 l882 1 -255 50 c-140
27 -307 60 -370 74 -63 13 -214 43 -335 65 -320 61 -311 68 60 49 110 -6 272
-15 360 -20 88 -5 252 -15 365 -20 113 -6 215 -13 228 -15 35 -8 26 8 -24 38
-52 31 -50 47 5 47 31 0 50 -9 92 -44 l54 -44 180 -12 c99 -6 182 -14 184 -16
4 -3 -25 -53 -73 -126 l-18 -28 621 0 621 0 0 3130 0 3130 -709 0 -709 0 -148
-54 c-82 -30 -241 -89 -354 -131 -113 -42 -232 -86 -265 -97 -33 -12 -65 -25
-71 -29 -6 -5 -33 -65 -59 -134 -33 -86 -52 -125 -63 -125 -9 0 -189 49 -401
110 -212 60 -471 133 -576 163 l-190 53 0 35 c1 19 4 73 9 122 l8 87 -1366 0
-1366 0 0 -1775z m6216 1398 c-3 -43 -10 -193 -16 -333 -15 -384 -2 -336 -137
-518 -145 -196 -263 -354 -276 -367 -6 -6 -7 59 -3 180 3 105 9 294 12 420 3
127 7 236 9 242 2 7 5 77 6 156 0 79 5 150 9 158 8 12 356 136 389 138 10 1
12 -15 7 -76z m-2611 -378 c31 -49 61 -98 66 -107 8 -14 -11 -47 -88 -155 -53
-76 -143 -203 -199 -283 -57 -80 -161 -226 -231 -325 -144 -202 -99 -164 -376
-314 -54 -29 -102 -51 -106 -49 -5 2 6 26 24 53 18 28 101 156 185 285 84 129
192 294 239 367 47 73 116 179 152 235 216 334 261 400 269 392 5 -5 34 -49
65 -99z m-1451 -177 c21 -24 119 -125 219 -225 l181 -182 -70 -78 c-38 -43
-85 -96 -106 -118 -20 -22 -45 -51 -56 -65 l-20 -25 -24 23 c-14 12 -43 55
-65 95 -97 171 -303 551 -300 553 8 8 165 62 183 63 13 1 35 -16 58 -41z m183
-117 c141 -121 320 -297 311 -306 -16 -16 -88 39 -193 147 -220 225 -270 278
-262 278 4 0 69 -53 144 -119z m-650 -318 c21 -26 83 -92 138 -148 55 -56 248
-251 428 -433 l328 -332 -39 -87 -38 -87 -99 -1 -98 0 -57 -170 c-32 -93 -72
-206 -89 -250 -45 -111 -171 -335 -171 -302 0 2 32 82 71 178 181 446 219 542
213 550 -3 5 -45 9 -93 9 -75 0 -93 3 -117 22 -59 43 -126 114 -146 152 l-19
38 -57 -6 -57 -6 45 21 c24 11 46 22 48 23 2 2 -22 86 -52 187 -30 101 -82
279 -116 394 -34 116 -67 229 -75 253 -19 59 2 57 52 -5z m-576 -174 c57 -34
106 -63 108 -65 15 -13 -24 -15 -143 -9 l-135 7 -5 27 c-2 14 -7 43 -11 64
l-6 37 44 0 c35 0 63 -12 148 -61z m-616 -281 c149 -135 276 -252 284 -261 7
-10 19 -17 25 -17 6 0 42 86 80 190 78 213 98 244 76 115 l-8 -50 71 -69 c174
-166 297 -290 297 -298 0 -4 -4 -8 -8 -8 -4 0 -95 -9 -202 -20 -107 -11 -206
-20 -220 -20 -16 0 -41 16 -70 43 -25 24 -108 99 -185 167 -77 68 -220 195
-317 283 -170 152 -177 160 -172 190 11 61 12 62 47 30 18 -16 154 -140 302
-275z m3812 -145 c22 -21 101 -98 176 -171 l138 -134 77 7 c42 3 113 11 157
16 44 5 99 9 122 9 24 0 43 3 43 8 0 4 -40 32 -90 62 -49 30 -90 58 -90 62 0
4 12 5 28 3 15 -3 123 -19 241 -36 180 -25 222 -34 260 -56 31 -18 103 -92
224 -231 98 -112 177 -206 175 -207 -12 -12 -194 59 -254 98 -38 25 -139 89
-224 143 l-154 97 -107 -35 c-60 -20 -110 -33 -113 -30 -3 3 -6 16 -6 29 0 13
-4 23 -9 23 -5 0 -231 -77 -503 -171 -271 -94 -538 -186 -593 -205 -87 -30
-104 -40 -126 -72 -26 -36 -34 -40 -299 -125 -150 -49 -274 -87 -276 -85 -9 9
129 188 172 223 27 22 135 112 239 200 105 88 198 166 208 174 12 10 96 22
253 37 130 12 237 24 240 26 2 2 -2 44 -8 93 -11 83 -10 96 11 163 27 88 39
122 45 122 2 0 22 -17 43 -37z m-2663 -207 l36 -45 -68 -248 -68 -248 -105
-71 c-79 -54 -142 -87 -254 -132 -83 -33 -152 -58 -154 -56 -2 2 81 157 185
345 l189 341 90 79 c50 43 95 78 101 79 7 0 28 -20 48 -44z m2991 -339 c-3
-23 -9 -56 -14 -72 -9 -29 -9 -29 -11 -5 l-2 25 -8 -25 c-4 -14 -8 -19 -9 -12
-1 6 -8 12 -16 12 -9 0 -12 6 -9 15 4 8 9 13 14 10 4 -2 5 6 3 19 -3 12 -11
23 -18 23 -8 0 -12 -3 -10 -7 2 -4 -8 -12 -23 -19 -23 -10 -25 -10 -10 2 25
20 10 29 -16 11 -20 -12 -23 -12 -23 0 0 13 73 45 132 59 11 3 21 5 22 6 2 0
0 -18 -2 -42z m-168 -31 c-3 -8 -1 -17 6 -19 8 -3 4 -11 -11 -22 -12 -9 -20
-21 -17 -26 4 -5 1 -9 -5 -9 -6 0 -18 -7 -26 -15 -14 -13 -14 -15 0 -15 9 0
16 -5 16 -11 0 -5 4 -7 10 -4 10 6 8 -37 -3 -67 -4 -10 -9 -25 -12 -33 -7 -23
-25 -18 -25 7 0 12 -3 19 -6 15 -10 -10 5 -57 19 -57 6 0 13 -11 13 -25 1 -14
-2 -25 -8 -25 -11 0 28 -73 57 -105 11 -12 35 -43 53 -69 l33 -48 -31 -49
c-31 -51 -35 -64 -22 -72 4 -2 1 -2 -5 -1 -7 2 -17 -6 -23 -16 -6 -11 -7 -20
-3 -20 4 0 2 -4 -6 -9 -7 -5 -25 -31 -40 -57 -14 -27 -33 -50 -41 -52 -22 -4
-45 84 -64 238 -8 69 -27 212 -41 319 -17 128 -23 197 -16 204 9 9 158 53 190
56 7 0 11 -5 8 -13z m140 -123 c-3 -10 -5 -2 -5 17 0 19 2 27 5 18 2 -10 2
-26 0 -35z m-7 -43 c0 -11 -4 -20 -9 -20 -5 0 -7 9 -4 20 3 11 7 20 9 20 2 0
4 -9 4 -20z m-722 -601 c77 -20 85 -25 108 -61 21 -33 29 -39 50 -34 13 4 24
3 24 -2 0 -14 -49 -285 -52 -287 -23 -22 -240 -93 -303 -99 -33 -4 -71 -9 -85
-12 -22 -4 -32 4 -74 61 -45 61 -66 74 -66 39 0 -19 -3 -19 -375 16 -176 17
-328 30 -337 30 -10 0 -18 4 -18 8 0 14 189 162 207 162 10 0 132 -38 271 -84
200 -67 254 -82 258 -70 2 8 6 20 8 28 5 14 114 61 123 53 2 -3 9 -38 16 -78
7 -41 16 -73 20 -72 9 3 60 66 112 141 l38 53 -18 40 c-10 22 -22 42 -27 45
-5 3 -38 -20 -73 -52 -36 -31 -68 -55 -71 -52 -2 3 -12 44 -21 92 -17 84 -17
86 4 113 13 18 31 29 52 31 26 3 30 6 21 21 -15 28 -4 30 63 11 34 -10 99 -28
145 -41z m1446 -33 c34 -19 81 -45 106 -58 25 -13 80 -44 124 -68 l78 -45 46
-95 c25 -52 85 -178 134 -279 48 -101 88 -185 88 -187 0 -2 25 -54 55 -115 30
-62 53 -114 51 -116 -13 -13 -196 62 -340 140 l-170 92 -74 200 c-88 239 -171
478 -182 522 -7 29 -3 38 19 42 2 1 32 -14 65 -33z m-957 -12 c12 -3 20 -11
17 -18 -3 -7 4 -21 16 -31 21 -19 27 -45 11 -45 -18 0 -71 74 -59 81 7 4 4 9
-8 12 -10 2 -14 5 -9 6 6 0 20 -2 32 -5z m83 1 c0 -7 -30 -13 -34 -7 -3 4 4 9
15 9 10 1 19 0 19 -2z m-2478 -343 c162 -19 232 -32 243 -43 13 -13 1 -32
-125 -179 -77 -91 -138 -169 -137 -175 2 -5 102 -42 223 -81 161 -52 220 -75
222 -87 3 -14 -5 -17 -46 -17 -40 0 -404 27 -579 44 l-43 4 0 -454 0 -454 35
-14 c39 -17 47 -36 14 -36 -11 0 -30 -5 -41 -11 -12 -7 -42 -13 -67 -15 -41
-3 -63 6 -196 74 l-150 77 -3 304 c-2 215 1 308 9 317 6 8 47 33 90 56 44 24
79 48 79 53 0 6 18 130 39 277 l38 266 49 61 c59 73 32 70 346 33z m1296 -172
c5 -13 3 -13 -13 0 -14 11 -12 6 5 -17 13 -18 31 -33 39 -34 10 0 12 -2 4 -6
-9 -3 -4 -16 15 -41 61 -80 131 -173 230 -305 57 -76 110 -141 116 -143 12 -5
102 28 426 156 85 33 203 79 263 102 59 23 107 44 107 47 0 3 -18 14 -40 23
-22 9 -40 20 -40 25 0 12 129 173 138 173 4 0 18 -64 30 -142 13 -79 27 -165
32 -193 14 -74 60 -360 60 -373 0 -18 -14 -16 -220 34 l-190 46 -140 -57 -140
-58 -78 36 c-42 19 -162 74 -266 122 -104 47 -226 103 -270 124 -113 53 -129
58 -123 34 3 -10 18 -75 32 -144 l27 -126 -118 -159 c-96 -128 -156 -195 -311
-346 -106 -104 -199 -188 -207 -188 -10 0 -15 15 -18 48 -3 42 11 83 123 362
70 173 146 360 169 415 23 55 44 106 47 113 4 8 -6 12 -30 12 -68 0 -70 5 -32
81 19 38 35 72 35 76 0 5 -52 32 -115 62 -64 30 -113 56 -110 59 3 3 112 50
243 103 242 99 308 116 320 79z m2036 -812 c12 -103 7 -180 -11 -195 -13 -10
-15 -16 -5 -19 6 -3 12 -11 12 -17 0 -27 -105 -139 -226 -243 -71 -60 -189
-160 -262 -223 -72 -62 -137 -111 -143 -109 -6 2 63 71 152 153 206 190 202
185 187 202 -6 8 -21 12 -32 9 -19 -5 -20 -4 -3 8 9 7 17 16 17 20 0 7 -74
-37 -201 -121 -35 -23 -60 -29 -158 -40 -135 -14 -221 -16 -221 -5 0 4 24 23
53 42 75 50 582 412 712 508 61 45 113 82 116 82 3 0 9 -24 13 -52z m-3599
-548 c8 -13 -5 -13 -25 0 -13 8 -13 10 2 10 9 0 20 -4 23 -10z m185 -70 c-12
-8 -10 -10 10 -11 l25 -1 -25 -7 c-27 -8 -50 -4 -50 9 0 5 8 11 18 13 30 8 37
7 22 -3z m25 -40 c3 -5 2 -10 -4 -10 -5 0 -13 5 -16 10 -3 6 -2 10 4 10 5 0
13 -4 16 -10z m280 -50 c3 -5 1 -10 -4 -10 -6 0 -11 5 -11 10 0 6 2 10 4 10 3
0 8 -4 11 -10z m-625 -54 c0 -15 -196 -59 -395 -91 -126 -19 -241 -38 -255
-40 -65 -13 19 17 180 64 129 37 203 53 280 59 127 11 190 13 190 8z m154
-100 l29 -24 -22 -36 c-25 -41 -30 -42 -71 -21 l-29 15 22 45 c12 24 27 44 32
44 6 0 23 -10 39 -23z"/>
<path d="M4595 3750 c3 -5 8 -10 11 -10 2 0 4 5 4 10 0 6 -5 10 -11 10 -5 0
-7 -4 -4 -10z"/>
<path d="M4370 3683 c8 -3 19 -11 23 -17 6 -7 7 -6 4 4 -2 8 -12 16 -23 17
-13 2 -15 1 -4 -4z"/>
<path d="M4380 3560 c0 -11 4 -20 9 -20 5 0 7 9 4 20 -3 11 -7 20 -9 20 -2 0
-4 -9 -4 -20z"/>
<path d="M4400 3430 c0 -5 5 -10 11 -10 5 0 7 5 4 10 -3 6 -8 10 -11 10 -2 0
-4 -4 -4 -10z"/>
<path d="M3491 6255 c5 -4 253 -96 297 -109 21 -7 22 -5 22 53 l0 61 -162 0
c-89 0 -159 -2 -157 -5z"/>
</g>
</svg>
